<?xml version="1.0" standalone="no"?>
<!DOCTYPE svg PUBLIC "-//W3C//DTD SVG 20010904//EN"
 "http://www.w3.org/TR/2001/REC-SVG-20010904/DTD/svg10.dtd">
<svg version="1.0" xmlns="http://www.w3.org/2000/svg"
 width="512.000000pt" height="512.000000pt" viewBox="0 0 512.000000 512.000000"
 preserveAspectRatio="xMidYMid meet">
<metadata>
Created by potrace 1.16, written by Peter Selinger 2001-2019
</metadata>
<g transform="translate(0.000000,512.000000) scale(0.100000,-0.100000)"
fill="#000000" stroke="none">
<path d="M620 5100 c-21 -21 -26 -69 -10 -100 5 -10 238 -141 517 -291 280
-150 510 -274 512 -276 2 -1 57 -359 123 -795 131 -874 121 -832 195 -832 34
-1 87 34 512 337 261 187 485 345 497 354 21 13 41 4 370 -177 191 -106 362
-194 379 -197 21 -3 37 1 52 14 12 10 189 258 392 552 396 569 395 569 352
622 -26 32 -83 32 -115 -1 -13 -14 -173 -241 -356 -505 -183 -264 -336 -484
-340 -488 -4 -4 -316 162 -694 370 l-687 378 1233 411 c678 226 1234 410 1236
409 1 -1 -42 -67 -98 -146 -111 -160 -125 -202 -78 -241 31 -27 80 -23 110 10
14 15 101 135 192 266 179 259 189 281 143 324 l-23 22 -2197 0 c-2184 0
-2197 0 -2217 -20z m3370 -146 c-8 -2 -520 -90 -1137 -195 l-1122 -191 -358
193 c-197 105 -360 194 -362 196 -2 1 670 2 1495 2 824 -1 1492 -3 1484 -5z
m-970 -485 c-509 -170 -935 -314 -948 -321 -30 -16 -34 -35 -78 -376 -22 -170
-41 -286 -46 -275 -9 23 -141 913 -136 918 5 5 2087 363 2113 363 11 0 -396
-139 -905 -309z m-511 -694 c171 -93 309 -173 308 -177 -3 -9 -748 -540 -752
-536 -1 2 24 199 56 438 32 239 58 439 59 443 0 13 -5 15 329 -168z"/>
<path d="M1891 2706 c-79 -29 -98 -117 -31 -151 24 -13 35 -13 84 0 32 8 59
15 61 15 3 0 12 14 20 31 13 24 14 37 5 63 -17 52 -68 68 -139 42z"/>
<path d="M1588 2585 c-72 -37 -88 -56 -88 -104 0 -42 31 -71 75 -71 40 0 160
62 175 90 27 51 -12 120 -67 120 -15 -1 -58 -16 -95 -35z"/>
<path d="M1364 2433 c-12 -2 -49 -29 -83 -59 -54 -49 -61 -60 -61 -92 0 -43 7
-55 37 -71 39 -20 68 -12 124 35 70 59 79 71 79 110 0 53 -43 87 -96 77z"/>
<path d="M1101 2177 c-32 -16 -111 -133 -111 -164 0 -58 56 -96 107 -71 37 18
123 132 123 164 0 30 -50 84 -77 84 -10 0 -29 -6 -42 -13z"/>
<path d="M1314 2114 c-56 -13 -78 -94 -37 -136 17 -17 32 -20 84 -19 76 1 109
25 109 77 0 50 -28 76 -86 79 -27 2 -59 1 -70 -1z"/>
<path d="M1576 2079 c-33 -26 -37 -88 -7 -118 23 -23 159 -56 194 -47 26 6 57
50 57 80 0 33 -45 66 -117 86 -90 25 -94 25 -127 -1z"/>
<path d="M1886 1938 c-9 -12 -16 -38 -16 -56 0 -27 9 -42 43 -74 85 -81 124
-94 171 -57 20 16 26 29 26 59 0 34 -7 44 -61 94 -54 50 -65 56 -104 56 -34 0
-47 -5 -59 -22z"/>
<path d="M698 1911 c-71 -45 -85 -86 -47 -135 15 -19 30 -26 55 -26 114 0 182
129 93 175 -39 21 -49 19 -101 -14z"/>
<path d="M920 1877 c-27 -14 -79 -130 -80 -180 0 -38 40 -77 80 -77 44 0 71
33 99 118 27 82 20 120 -25 141 -31 14 -43 14 -74 -2z"/>
<path d="M438 1700 c-60 -61 -72 -96 -48 -140 13 -24 65 -42 93 -31 32 13 125
112 127 136 6 62 -21 95 -77 95 -32 0 -45 -8 -95 -60z"/>
<path d="M2112 1683 c-26 -10 -41 -57 -32 -103 5 -25 11 -61 14 -81 4 -19 15
-45 27 -57 40 -44 127 -17 130 41 4 73 -17 163 -44 188 -20 18 -66 24 -95 12z"/>
<path d="M860 1537 c-41 -21 -51 -53 -41 -143 8 -67 13 -82 36 -101 33 -29 64
-29 99 -2 23 18 26 27 26 82 -1 73 -13 135 -32 153 -21 20 -61 25 -88 11z"/>
<path d="M267 1476 c-30 -32 -77 -128 -77 -155 0 -54 54 -89 108 -70 36 12
102 123 102 172 0 69 -86 104 -133 53z"/>
<path d="M2113 1338 c-32 -15 -83 -131 -83 -188 0 -62 88 -93 133 -47 12 12
33 54 47 93 21 62 22 75 11 102 -8 19 -24 35 -43 41 -36 13 -36 13 -65 -1z"/>
<path d="M925 1185 c-14 -13 -25 -36 -25 -50 0 -51 71 -158 116 -175 29 -11
81 6 94 30 6 10 10 29 10 42 0 28 -61 135 -91 161 -30 25 -75 22 -104 -8z"/>
<path d="M153 1189 c-30 -11 -48 -43 -67 -121 -23 -97 -2 -138 72 -138 39 0
66 32 86 102 19 67 20 108 4 131 -17 22 -68 36 -95 26z"/>
<path d="M1881 1004 c-34 -25 -66 -54 -71 -64 -28 -52 11 -120 68 -120 33 0
143 75 161 109 18 33 12 70 -14 96 -37 38 -73 32 -144 -21z"/>
<path d="M1166 939 c-32 -25 -36 -87 -9 -115 26 -26 134 -74 166 -74 33 0 77
40 77 69 0 47 -18 67 -95 104 -88 43 -103 44 -139 16z"/>
<path d="M1600 885 c-8 -2 -32 -6 -53 -10 -73 -12 -103 -87 -52 -135 23 -21
30 -23 107 -17 103 8 132 26 136 84 3 34 -1 44 -24 62 -25 19 -68 25 -114 16z"/>
<path d="M61 834 c-29 -37 -31 -180 -2 -215 27 -34 86 -32 117 5 21 24 24 37
24 110 0 73 -3 85 -23 104 -34 32 -89 30 -116 -4z"/>
<path d="M102 520 c-39 -16 -46 -55 -27 -139 19 -83 48 -121 90 -121 72 0 93
44 70 149 -24 106 -63 139 -133 111z"/>
<path d="M195 185 c-31 -30 -32 -72 -5 -125 23 -45 45 -60 89 -60 66 0 89 65
51 140 -36 71 -91 90 -135 45z"/>
</g>
</svg>
